<mxfile host="app.diagrams.net" agent="Mozilla/5.0 (Windows NT 10.0; Win64; x64) AppleWebKit/537.36 (KHTML, like Gecko) Chrome/130.0.0.0 Safari/537.36 Edg/130.0.0.0" version="24.8.4">
  <diagram name="第 1 页" id="CgbGqWeiciak2SSr_8g0">
    <mxGraphModel dx="998" dy="453" grid="1" gridSize="10" guides="1" tooltips="1" connect="1" arrows="1" fold="1" page="1" pageScale="1" pageWidth="827" pageHeight="1169" math="0" shadow="0">
      <root>
        <mxCell id="0" />
        <mxCell id="1" parent="0" />
        <mxCell id="PcLLNrCdASyvN8jC8210-33" style="edgeStyle=orthogonalEdgeStyle;rounded=0;orthogonalLoop=1;jettySize=auto;html=1;exitX=1;exitY=0.5;exitDx=0;exitDy=0;entryX=0.801;entryY=-0.011;entryDx=0;entryDy=0;entryPerimeter=0;" parent="1" source="PcLLNrCdASyvN8jC8210-8" target="PcLLNrCdASyvN8jC8210-29" edge="1">
          <mxGeometry relative="1" as="geometry" />
        </mxCell>
        <mxCell id="PcLLNrCdASyvN8jC8210-8" value="*lh_first&amp;nbsp; &amp;nbsp; &amp;nbsp; &amp;nbsp; &amp;nbsp; &amp;nbsp; &amp;nbsp; &amp;nbsp; &amp;nbsp; &amp;nbsp; &amp;nbsp; &amp;nbsp; **lh_tail" style="rounded=1;whiteSpace=wrap;html=1;" parent="1" vertex="1">
          <mxGeometry x="100" y="10" width="190" height="30" as="geometry" />
        </mxCell>
        <mxCell id="PcLLNrCdASyvN8jC8210-32" style="edgeStyle=orthogonalEdgeStyle;rounded=0;orthogonalLoop=1;jettySize=auto;html=1;exitX=0.189;exitY=1.052;exitDx=0;exitDy=0;entryX=0.5;entryY=0;entryDx=0;entryDy=0;exitPerimeter=0;" parent="1" source="PcLLNrCdASyvN8jC8210-8" target="PcLLNrCdASyvN8jC8210-22" edge="1">
          <mxGeometry relative="1" as="geometry" />
        </mxCell>
        <mxCell id="PcLLNrCdASyvN8jC8210-9" value="head" style="shape=partialRectangle;whiteSpace=wrap;html=1;top=0;bottom=0;fillColor=none;" parent="1" vertex="1">
          <mxGeometry x="171" y="10" width="50" height="30" as="geometry" />
        </mxCell>
        <mxCell id="PcLLNrCdASyvN8jC8210-25" style="edgeStyle=orthogonalEdgeStyle;rounded=0;orthogonalLoop=1;jettySize=auto;html=1;exitX=0.811;exitY=0.056;exitDx=0;exitDy=0;entryX=0.5;entryY=0;entryDx=0;entryDy=0;exitPerimeter=0;" parent="1" source="PcLLNrCdASyvN8jC8210-21" target="PcLLNrCdASyvN8jC8210-24" edge="1">
          <mxGeometry relative="1" as="geometry">
            <Array as="points">
              <mxPoint x="194" y="100" />
              <mxPoint x="366" y="100" />
            </Array>
          </mxGeometry>
        </mxCell>
        <mxCell id="PcLLNrCdASyvN8jC8210-21" value="**le_prev&amp;nbsp; &amp;nbsp; &amp;nbsp; &amp;nbsp; &amp;nbsp; &amp;nbsp; &amp;nbsp; &amp;nbsp; &amp;nbsp; &amp;nbsp; &amp;nbsp; &amp;nbsp; *le_next" style="rounded=1;whiteSpace=wrap;html=1;" parent="1" vertex="1">
          <mxGeometry x="40" y="120" width="190" height="30" as="geometry" />
        </mxCell>
        <mxCell id="9PKcSmoNiK7LUXzbzVSb-18" style="edgeStyle=orthogonalEdgeStyle;rounded=0;orthogonalLoop=1;jettySize=auto;html=1;exitX=0;exitY=1;exitDx=0;exitDy=0;" edge="1" parent="1">
          <mxGeometry relative="1" as="geometry">
            <mxPoint x="80.20000000000005" y="260" as="targetPoint" />
            <mxPoint x="80" y="150" as="sourcePoint" />
          </mxGeometry>
        </mxCell>
        <mxCell id="PcLLNrCdASyvN8jC8210-22" value="e1" style="shape=partialRectangle;whiteSpace=wrap;html=1;top=0;bottom=0;fillColor=none;" parent="1" vertex="1">
          <mxGeometry x="111" y="120" width="50" height="30" as="geometry" />
        </mxCell>
        <mxCell id="PcLLNrCdASyvN8jC8210-23" value="**le_prev&amp;nbsp; &amp;nbsp; &amp;nbsp; &amp;nbsp; &amp;nbsp; &amp;nbsp; &amp;nbsp; &amp;nbsp; &amp;nbsp; &amp;nbsp; &amp;nbsp; &amp;nbsp; *le_next" style="rounded=1;whiteSpace=wrap;html=1;" parent="1" vertex="1">
          <mxGeometry x="270" y="120" width="190" height="30" as="geometry" />
        </mxCell>
        <mxCell id="9PKcSmoNiK7LUXzbzVSb-10" style="edgeStyle=orthogonalEdgeStyle;rounded=0;orthogonalLoop=1;jettySize=auto;html=1;entryX=0.5;entryY=0;entryDx=0;entryDy=0;" edge="1" parent="1" source="PcLLNrCdASyvN8jC8210-23" target="9PKcSmoNiK7LUXzbzVSb-8">
          <mxGeometry relative="1" as="geometry">
            <Array as="points">
              <mxPoint x="424" y="100" />
              <mxPoint x="581" y="100" />
            </Array>
          </mxGeometry>
        </mxCell>
        <mxCell id="PcLLNrCdASyvN8jC8210-24" value="e2" style="shape=partialRectangle;whiteSpace=wrap;html=1;top=0;bottom=0;fillColor=none;" parent="1" vertex="1">
          <mxGeometry x="341" y="120" width="50" height="30" as="geometry" />
        </mxCell>
        <mxCell id="PcLLNrCdASyvN8jC8210-29" value="**le_prev&amp;nbsp; &amp;nbsp; &amp;nbsp; &amp;nbsp; &amp;nbsp; &amp;nbsp; &amp;nbsp; &amp;nbsp; &amp;nbsp; &amp;nbsp; &amp;nbsp; &amp;nbsp; *le_next" style="rounded=1;whiteSpace=wrap;html=1;" parent="1" vertex="1">
          <mxGeometry x="745" y="120" width="190" height="30" as="geometry" />
        </mxCell>
        <mxCell id="9PKcSmoNiK7LUXzbzVSb-6" style="edgeStyle=orthogonalEdgeStyle;rounded=0;orthogonalLoop=1;jettySize=auto;html=1;exitX=0.175;exitY=0.949;exitDx=0;exitDy=0;entryX=0.825;entryY=0.967;entryDx=0;entryDy=0;entryPerimeter=0;exitPerimeter=0;" edge="1" parent="1" source="9PKcSmoNiK7LUXzbzVSb-7" target="PcLLNrCdASyvN8jC8210-23">
          <mxGeometry relative="1" as="geometry">
            <mxPoint x="480" y="230" as="targetPoint" />
            <Array as="points">
              <mxPoint x="520" y="149" />
              <mxPoint x="520" y="170" />
              <mxPoint x="427" y="170" />
            </Array>
          </mxGeometry>
        </mxCell>
        <mxCell id="9PKcSmoNiK7LUXzbzVSb-19" style="edgeStyle=orthogonalEdgeStyle;rounded=0;orthogonalLoop=1;jettySize=auto;html=1;exitX=1;exitY=1;exitDx=0;exitDy=0;" edge="1" parent="1">
          <mxGeometry relative="1" as="geometry">
            <mxPoint x="900.0033333333334" y="260" as="targetPoint" />
            <mxPoint x="900.17" y="150" as="sourcePoint" />
          </mxGeometry>
        </mxCell>
        <mxCell id="PcLLNrCdASyvN8jC8210-30" value="tail" style="shape=partialRectangle;whiteSpace=wrap;html=1;top=0;bottom=0;fillColor=none;" parent="1" vertex="1">
          <mxGeometry x="816" y="120" width="50" height="30" as="geometry" />
        </mxCell>
        <mxCell id="PcLLNrCdASyvN8jC8210-34" value="elm" style="shape=process;whiteSpace=wrap;html=1;backgroundOutline=1;size=0.29411764705882354;" parent="1" vertex="1">
          <mxGeometry x="445" y="320" width="200" height="40" as="geometry" />
        </mxCell>
        <mxCell id="PcLLNrCdASyvN8jC8210-36" value="*le_next" style="text;html=1;align=center;verticalAlign=middle;resizable=0;points=[];autosize=1;strokeColor=none;fillColor=none;" parent="1" vertex="1">
          <mxGeometry x="580" y="325" width="70" height="30" as="geometry" />
        </mxCell>
        <mxCell id="PcLLNrCdASyvN8jC8210-37" value="**le_prev" style="text;html=1;align=center;verticalAlign=middle;resizable=0;points=[];autosize=1;strokeColor=none;fillColor=none;" parent="1" vertex="1">
          <mxGeometry x="440" y="325" width="70" height="30" as="geometry" />
        </mxCell>
        <mxCell id="9PKcSmoNiK7LUXzbzVSb-5" style="edgeStyle=orthogonalEdgeStyle;rounded=0;orthogonalLoop=1;jettySize=auto;html=1;exitX=0.215;exitY=0.989;exitDx=0;exitDy=0;entryX=0.811;entryY=1.033;entryDx=0;entryDy=0;entryPerimeter=0;exitPerimeter=0;" edge="1" parent="1" source="PcLLNrCdASyvN8jC8210-23" target="PcLLNrCdASyvN8jC8210-21">
          <mxGeometry relative="1" as="geometry" />
        </mxCell>
        <mxCell id="9PKcSmoNiK7LUXzbzVSb-12" style="edgeStyle=orthogonalEdgeStyle;rounded=0;orthogonalLoop=1;jettySize=auto;html=1;exitX=0.81;exitY=-0.003;exitDx=0;exitDy=0;entryX=0.5;entryY=0;entryDx=0;entryDy=0;exitPerimeter=0;" edge="1" parent="1" source="9PKcSmoNiK7LUXzbzVSb-7" target="PcLLNrCdASyvN8jC8210-30">
          <mxGeometry relative="1" as="geometry">
            <mxPoint x="860" y="100" as="targetPoint" />
            <Array as="points">
              <mxPoint x="639" y="121" />
              <mxPoint x="640" y="121" />
              <mxPoint x="640" y="100" />
              <mxPoint x="841" y="100" />
            </Array>
          </mxGeometry>
        </mxCell>
        <mxCell id="9PKcSmoNiK7LUXzbzVSb-7" value="**le_prev&amp;nbsp; &amp;nbsp; &amp;nbsp; &amp;nbsp; &amp;nbsp; &amp;nbsp; &amp;nbsp; &amp;nbsp; &amp;nbsp; &amp;nbsp; &amp;nbsp; &amp;nbsp; *le_next" style="rounded=1;whiteSpace=wrap;html=1;" vertex="1" parent="1">
          <mxGeometry x="485" y="120" width="190" height="30" as="geometry" />
        </mxCell>
        <mxCell id="9PKcSmoNiK7LUXzbzVSb-8" value="e3" style="shape=partialRectangle;whiteSpace=wrap;html=1;top=0;bottom=0;fillColor=none;" vertex="1" parent="1">
          <mxGeometry x="556" y="120" width="50" height="30" as="geometry" />
        </mxCell>
        <mxCell id="9PKcSmoNiK7LUXzbzVSb-13" style="edgeStyle=orthogonalEdgeStyle;rounded=0;orthogonalLoop=1;jettySize=auto;html=1;exitX=0;exitY=1;exitDx=0;exitDy=0;entryX=0.822;entryY=1.063;entryDx=0;entryDy=0;entryPerimeter=0;" edge="1" parent="1" source="PcLLNrCdASyvN8jC8210-30" target="9PKcSmoNiK7LUXzbzVSb-7">
          <mxGeometry relative="1" as="geometry">
            <Array as="points">
              <mxPoint x="780" y="150" />
              <mxPoint x="780" y="170" />
              <mxPoint x="641" y="170" />
            </Array>
          </mxGeometry>
        </mxCell>
        <mxCell id="9PKcSmoNiK7LUXzbzVSb-14" value="..." style="text;html=1;align=center;verticalAlign=middle;resizable=0;points=[];autosize=1;strokeColor=none;fillColor=none;" vertex="1" parent="1">
          <mxGeometry x="685" y="68" width="30" height="30" as="geometry" />
        </mxCell>
        <mxCell id="9PKcSmoNiK7LUXzbzVSb-16" value="..." style="text;html=1;align=center;verticalAlign=middle;resizable=0;points=[];autosize=1;strokeColor=none;fillColor=none;" vertex="1" parent="1">
          <mxGeometry x="685" y="140" width="30" height="30" as="geometry" />
        </mxCell>
        <mxCell id="9PKcSmoNiK7LUXzbzVSb-23" style="edgeStyle=orthogonalEdgeStyle;rounded=0;orthogonalLoop=1;jettySize=auto;html=1;exitX=0.75;exitY=0;exitDx=0;exitDy=0;entryX=0.5;entryY=0;entryDx=0;entryDy=0;" edge="1" parent="1" source="9PKcSmoNiK7LUXzbzVSb-20" target="PcLLNrCdASyvN8jC8210-34">
          <mxGeometry relative="1" as="geometry" />
        </mxCell>
        <mxCell id="9PKcSmoNiK7LUXzbzVSb-20" value="**le_prev&amp;nbsp; &amp;nbsp; &amp;nbsp; &amp;nbsp; &amp;nbsp; &amp;nbsp; &amp;nbsp; &amp;nbsp; &amp;nbsp; &amp;nbsp; &amp;nbsp; &amp;nbsp; *le_next" style="rounded=1;whiteSpace=wrap;html=1;" vertex="1" parent="1">
          <mxGeometry x="210" y="325" width="190" height="30" as="geometry" />
        </mxCell>
        <mxCell id="9PKcSmoNiK7LUXzbzVSb-21" value="tail" style="shape=partialRectangle;whiteSpace=wrap;html=1;top=0;bottom=0;fillColor=none;" vertex="1" parent="1">
          <mxGeometry x="281" y="325" width="50" height="30" as="geometry" />
        </mxCell>
        <mxCell id="9PKcSmoNiK7LUXzbzVSb-22" value="" style="edgeStyle=segmentEdgeStyle;endArrow=classic;html=1;curved=0;rounded=0;endSize=8;startSize=8;sourcePerimeterSpacing=0;targetPerimeterSpacing=0;entryX=0.789;entryY=1.067;entryDx=0;entryDy=0;entryPerimeter=0;exitX=0.129;exitY=1.025;exitDx=0;exitDy=0;exitPerimeter=0;" edge="1" parent="1" source="PcLLNrCdASyvN8jC8210-34" target="9PKcSmoNiK7LUXzbzVSb-20">
          <mxGeometry width="100" relative="1" as="geometry">
            <mxPoint x="471" y="370" as="sourcePoint" />
            <mxPoint x="550" y="390" as="targetPoint" />
            <Array as="points">
              <mxPoint x="471" y="390" />
              <mxPoint x="360" y="390" />
            </Array>
          </mxGeometry>
        </mxCell>
        <mxCell id="9PKcSmoNiK7LUXzbzVSb-24" value="listelm_next" style="shape=process;whiteSpace=wrap;html=1;backgroundOutline=1;size=0.29411764705882354;" vertex="1" parent="1">
          <mxGeometry x="445" y="470" width="200" height="40" as="geometry" />
        </mxCell>
        <mxCell id="9PKcSmoNiK7LUXzbzVSb-25" value="*le_next" style="text;html=1;align=center;verticalAlign=middle;resizable=0;points=[];autosize=1;strokeColor=none;fillColor=none;" vertex="1" parent="1">
          <mxGeometry x="580" y="475" width="70" height="30" as="geometry" />
        </mxCell>
        <mxCell id="9PKcSmoNiK7LUXzbzVSb-26" value="**le_prev" style="text;html=1;align=center;verticalAlign=middle;resizable=0;points=[];autosize=1;strokeColor=none;fillColor=none;" vertex="1" parent="1">
          <mxGeometry x="440" y="475" width="70" height="30" as="geometry" />
        </mxCell>
        <mxCell id="9PKcSmoNiK7LUXzbzVSb-28" value="**le_prev&amp;nbsp; &amp;nbsp; &amp;nbsp; &amp;nbsp; &amp;nbsp; &amp;nbsp; &amp;nbsp; &amp;nbsp; &amp;nbsp; &amp;nbsp; &amp;nbsp; &amp;nbsp; *le_next" style="rounded=1;whiteSpace=wrap;html=1;" vertex="1" parent="1">
          <mxGeometry x="210" y="475" width="190" height="30" as="geometry" />
        </mxCell>
        <mxCell id="9PKcSmoNiK7LUXzbzVSb-29" value="listelm" style="shape=partialRectangle;whiteSpace=wrap;html=1;top=0;bottom=0;fillColor=none;" vertex="1" parent="1">
          <mxGeometry x="281" y="475" width="50" height="30" as="geometry" />
        </mxCell>
        <mxCell id="9PKcSmoNiK7LUXzbzVSb-41" style="edgeStyle=orthogonalEdgeStyle;rounded=0;orthogonalLoop=1;jettySize=auto;html=1;entryX=0.5;entryY=1;entryDx=0;entryDy=0;" edge="1" parent="1" target="9PKcSmoNiK7LUXzbzVSb-24">
          <mxGeometry relative="1" as="geometry">
            <mxPoint x="520" y="660" as="sourcePoint" />
            <Array as="points">
              <mxPoint x="545" y="660" />
            </Array>
          </mxGeometry>
        </mxCell>
        <mxCell id="9PKcSmoNiK7LUXzbzVSb-50" value="1" style="edgeLabel;html=1;align=center;verticalAlign=middle;resizable=0;points=[];" vertex="1" connectable="0" parent="9PKcSmoNiK7LUXzbzVSb-41">
          <mxGeometry x="0.2076" y="3" relative="1" as="geometry">
            <mxPoint as="offset" />
          </mxGeometry>
        </mxCell>
        <mxCell id="9PKcSmoNiK7LUXzbzVSb-44" style="edgeStyle=orthogonalEdgeStyle;rounded=0;orthogonalLoop=1;jettySize=auto;html=1;exitX=0.132;exitY=0.008;exitDx=0;exitDy=0;entryX=0.75;entryY=1;entryDx=0;entryDy=0;exitPerimeter=0;" edge="1" parent="1" source="9PKcSmoNiK7LUXzbzVSb-31" target="9PKcSmoNiK7LUXzbzVSb-28">
          <mxGeometry relative="1" as="geometry">
            <Array as="points">
              <mxPoint x="353" y="640" />
              <mxPoint x="353" y="573" />
            </Array>
          </mxGeometry>
        </mxCell>
        <mxCell id="9PKcSmoNiK7LUXzbzVSb-49" value="1" style="edgeLabel;html=1;align=center;verticalAlign=middle;resizable=0;points=[];" vertex="1" connectable="0" parent="9PKcSmoNiK7LUXzbzVSb-44">
          <mxGeometry x="-0.0248" y="3" relative="1" as="geometry">
            <mxPoint as="offset" />
          </mxGeometry>
        </mxCell>
        <mxCell id="9PKcSmoNiK7LUXzbzVSb-69" value="2" style="edgeLabel;html=1;align=center;verticalAlign=middle;resizable=0;points=[];" vertex="1" connectable="0" parent="9PKcSmoNiK7LUXzbzVSb-44">
          <mxGeometry x="0.0183" y="3" relative="1" as="geometry">
            <mxPoint as="offset" />
          </mxGeometry>
        </mxCell>
        <mxCell id="9PKcSmoNiK7LUXzbzVSb-31" value="elm" style="shape=process;whiteSpace=wrap;html=1;backgroundOutline=1;size=0.29411764705882354;" vertex="1" parent="1">
          <mxGeometry x="325" y="640" width="200" height="40" as="geometry" />
        </mxCell>
        <mxCell id="9PKcSmoNiK7LUXzbzVSb-32" value="*le_next" style="text;html=1;align=center;verticalAlign=middle;resizable=0;points=[];autosize=1;strokeColor=none;fillColor=none;" vertex="1" parent="1">
          <mxGeometry x="460" y="645" width="70" height="30" as="geometry" />
        </mxCell>
        <mxCell id="9PKcSmoNiK7LUXzbzVSb-33" value="**le_prev" style="text;html=1;align=center;verticalAlign=middle;resizable=0;points=[];autosize=1;strokeColor=none;fillColor=none;" vertex="1" parent="1">
          <mxGeometry x="320" y="645" width="70" height="30" as="geometry" />
        </mxCell>
        <mxCell id="9PKcSmoNiK7LUXzbzVSb-39" value="" style="endArrow=classic;html=1;rounded=0;exitX=0.878;exitY=1.089;exitDx=0;exitDy=0;entryX=0.5;entryY=0;entryDx=0;entryDy=0;exitPerimeter=0;" edge="1" parent="1" source="9PKcSmoNiK7LUXzbzVSb-28" target="9PKcSmoNiK7LUXzbzVSb-31">
          <mxGeometry width="50" height="50" relative="1" as="geometry">
            <mxPoint x="420" y="640" as="sourcePoint" />
            <mxPoint x="470" y="590" as="targetPoint" />
          </mxGeometry>
        </mxCell>
        <mxCell id="9PKcSmoNiK7LUXzbzVSb-52" value="4" style="edgeLabel;html=1;align=center;verticalAlign=middle;resizable=0;points=[];" vertex="1" connectable="0" parent="9PKcSmoNiK7LUXzbzVSb-39">
          <mxGeometry x="0.0077" y="-2" relative="1" as="geometry">
            <mxPoint as="offset" />
          </mxGeometry>
        </mxCell>
        <mxCell id="9PKcSmoNiK7LUXzbzVSb-43" value="" style="endArrow=classic;html=1;rounded=0;entryX=0.822;entryY=-0.058;entryDx=0;entryDy=0;exitX=0.213;exitY=1.025;exitDx=0;exitDy=0;entryPerimeter=0;exitPerimeter=0;" edge="1" parent="1" source="9PKcSmoNiK7LUXzbzVSb-24" target="9PKcSmoNiK7LUXzbzVSb-31">
          <mxGeometry width="50" height="50" relative="1" as="geometry">
            <mxPoint x="475" y="530" as="sourcePoint" />
            <mxPoint x="470" y="590" as="targetPoint" />
          </mxGeometry>
        </mxCell>
        <mxCell id="9PKcSmoNiK7LUXzbzVSb-51" value="3" style="edgeLabel;html=1;align=center;verticalAlign=middle;resizable=0;points=[];" vertex="1" connectable="0" parent="9PKcSmoNiK7LUXzbzVSb-43">
          <mxGeometry x="-0.0399" y="-1" relative="1" as="geometry">
            <mxPoint as="offset" />
          </mxGeometry>
        </mxCell>
        <mxCell id="9PKcSmoNiK7LUXzbzVSb-53" value="listelm" style="shape=process;whiteSpace=wrap;html=1;backgroundOutline=1;size=0.29411764705882354;" vertex="1" parent="1">
          <mxGeometry x="445" y="700" width="200" height="40" as="geometry" />
        </mxCell>
        <mxCell id="9PKcSmoNiK7LUXzbzVSb-54" value="*le_next" style="text;html=1;align=center;verticalAlign=middle;resizable=0;points=[];autosize=1;strokeColor=none;fillColor=none;" vertex="1" parent="1">
          <mxGeometry x="580" y="705" width="70" height="30" as="geometry" />
        </mxCell>
        <mxCell id="9PKcSmoNiK7LUXzbzVSb-55" value="**le_prev" style="text;html=1;align=center;verticalAlign=middle;resizable=0;points=[];autosize=1;strokeColor=none;fillColor=none;" vertex="1" parent="1">
          <mxGeometry x="440" y="705" width="70" height="30" as="geometry" />
        </mxCell>
        <mxCell id="9PKcSmoNiK7LUXzbzVSb-56" value="**le_prev&amp;nbsp; &amp;nbsp; &amp;nbsp; &amp;nbsp; &amp;nbsp; &amp;nbsp; &amp;nbsp; &amp;nbsp; &amp;nbsp; &amp;nbsp; &amp;nbsp; &amp;nbsp; *le_next" style="rounded=1;whiteSpace=wrap;html=1;" vertex="1" parent="1">
          <mxGeometry x="180" y="705" width="230" height="30" as="geometry" />
        </mxCell>
        <mxCell id="9PKcSmoNiK7LUXzbzVSb-57" value="listelm_prev" style="shape=partialRectangle;whiteSpace=wrap;html=1;top=0;bottom=0;fillColor=none;" vertex="1" parent="1">
          <mxGeometry x="260" y="705" width="71" height="30" as="geometry" />
        </mxCell>
        <mxCell id="9PKcSmoNiK7LUXzbzVSb-58" style="edgeStyle=orthogonalEdgeStyle;rounded=0;orthogonalLoop=1;jettySize=auto;html=1;entryX=0.5;entryY=1;entryDx=0;entryDy=0;" edge="1" parent="1" target="9PKcSmoNiK7LUXzbzVSb-53">
          <mxGeometry relative="1" as="geometry">
            <mxPoint x="520" y="890" as="sourcePoint" />
            <Array as="points">
              <mxPoint x="545" y="890" />
            </Array>
          </mxGeometry>
        </mxCell>
        <mxCell id="9PKcSmoNiK7LUXzbzVSb-59" value="2" style="edgeLabel;html=1;align=center;verticalAlign=middle;resizable=0;points=[];" vertex="1" connectable="0" parent="9PKcSmoNiK7LUXzbzVSb-58">
          <mxGeometry x="0.2076" y="3" relative="1" as="geometry">
            <mxPoint as="offset" />
          </mxGeometry>
        </mxCell>
        <mxCell id="9PKcSmoNiK7LUXzbzVSb-60" style="edgeStyle=orthogonalEdgeStyle;rounded=0;orthogonalLoop=1;jettySize=auto;html=1;exitX=0.132;exitY=0.008;exitDx=0;exitDy=0;entryX=0.75;entryY=1;entryDx=0;entryDy=0;exitPerimeter=0;" edge="1" parent="1" source="9PKcSmoNiK7LUXzbzVSb-62" target="9PKcSmoNiK7LUXzbzVSb-56">
          <mxGeometry relative="1" as="geometry">
            <Array as="points">
              <mxPoint x="353" y="870" />
              <mxPoint x="353" y="803" />
            </Array>
          </mxGeometry>
        </mxCell>
        <mxCell id="9PKcSmoNiK7LUXzbzVSb-61" value="1" style="edgeLabel;html=1;align=center;verticalAlign=middle;resizable=0;points=[];" vertex="1" connectable="0" parent="9PKcSmoNiK7LUXzbzVSb-60">
          <mxGeometry x="-0.0248" y="3" relative="1" as="geometry">
            <mxPoint as="offset" />
          </mxGeometry>
        </mxCell>
        <mxCell id="9PKcSmoNiK7LUXzbzVSb-62" value="elm" style="shape=process;whiteSpace=wrap;html=1;backgroundOutline=1;size=0.29411764705882354;" vertex="1" parent="1">
          <mxGeometry x="325" y="870" width="200" height="40" as="geometry" />
        </mxCell>
        <mxCell id="9PKcSmoNiK7LUXzbzVSb-63" value="*le_next" style="text;html=1;align=center;verticalAlign=middle;resizable=0;points=[];autosize=1;strokeColor=none;fillColor=none;" vertex="1" parent="1">
          <mxGeometry x="460" y="875" width="70" height="30" as="geometry" />
        </mxCell>
        <mxCell id="9PKcSmoNiK7LUXzbzVSb-64" value="**le_prev" style="text;html=1;align=center;verticalAlign=middle;resizable=0;points=[];autosize=1;strokeColor=none;fillColor=none;" vertex="1" parent="1">
          <mxGeometry x="320" y="875" width="70" height="30" as="geometry" />
        </mxCell>
        <mxCell id="9PKcSmoNiK7LUXzbzVSb-65" value="" style="endArrow=classic;html=1;rounded=0;exitX=0.878;exitY=1.089;exitDx=0;exitDy=0;entryX=0.5;entryY=0;entryDx=0;entryDy=0;exitPerimeter=0;" edge="1" parent="1" source="9PKcSmoNiK7LUXzbzVSb-56" target="9PKcSmoNiK7LUXzbzVSb-62">
          <mxGeometry width="50" height="50" relative="1" as="geometry">
            <mxPoint x="420" y="870" as="sourcePoint" />
            <mxPoint x="470" y="820" as="targetPoint" />
          </mxGeometry>
        </mxCell>
        <mxCell id="9PKcSmoNiK7LUXzbzVSb-66" value="4" style="edgeLabel;html=1;align=center;verticalAlign=middle;resizable=0;points=[];" vertex="1" connectable="0" parent="9PKcSmoNiK7LUXzbzVSb-65">
          <mxGeometry x="0.0077" y="-2" relative="1" as="geometry">
            <mxPoint as="offset" />
          </mxGeometry>
        </mxCell>
        <mxCell id="9PKcSmoNiK7LUXzbzVSb-67" value="" style="endArrow=classic;html=1;rounded=0;entryX=0.822;entryY=-0.058;entryDx=0;entryDy=0;exitX=0.213;exitY=1.025;exitDx=0;exitDy=0;entryPerimeter=0;exitPerimeter=0;" edge="1" parent="1" source="9PKcSmoNiK7LUXzbzVSb-53" target="9PKcSmoNiK7LUXzbzVSb-62">
          <mxGeometry width="50" height="50" relative="1" as="geometry">
            <mxPoint x="475" y="760" as="sourcePoint" />
            <mxPoint x="470" y="820" as="targetPoint" />
          </mxGeometry>
        </mxCell>
        <mxCell id="9PKcSmoNiK7LUXzbzVSb-68" value="3" style="edgeLabel;html=1;align=center;verticalAlign=middle;resizable=0;points=[];" vertex="1" connectable="0" parent="9PKcSmoNiK7LUXzbzVSb-67">
          <mxGeometry x="-0.0399" y="-1" relative="1" as="geometry">
            <mxPoint as="offset" />
          </mxGeometry>
        </mxCell>
      </root>
    </mxGraphModel>
  </diagram>
</mxfile>
